<svg width="175" height="150" viewBox="0 0 175 150" fill="none" xmlns="http://www.w3.org/2000/svg">
<mask id="mask0_20647_15485" style="mask-type:alpha" maskUnits="userSpaceOnUse" x="0" y="0" width="175" height="150">
<rect width="175" height="150" rx="24" fill="#E7F1EE"/>
</mask>
<g mask="url(#mask0_20647_15485)">
<path d="M46.849 43.8604C43.7832 44.4864 40.9572 46.1436 39.1271 48.686C37.5238 50.9148 36.3512 54.1236 37.0502 58.5455C38.7179 69.1614 43.2499 70.721 38.8078 76.4474C34.3657 82.1738 30.3393 80.9568 29.906 91.5227C29.4727 102.089 39.281 112.702 50.0037 106.243C60.7221 99.772 86.1781 82.5544 86.1781 82.5544L73.3541 40.585L58.0194 41.5751L46.8781 43.8644L46.849 43.8604Z" fill="#44408D"/>
<path d="M119.619 100.793L144.081 64.8223L156.543 72.1516L136.831 111.305L119.619 100.793Z" fill="#FF9F9C"/>
<path d="M123.028 114.89C118.225 112.069 116.618 105.89 119.439 101.087C122.261 96.2849 128.44 94.6773 133.242 97.4988C138.045 100.32 139.652 106.499 136.831 111.302C134.009 116.104 127.83 117.712 123.028 114.89Z" fill="#FF9F9C"/>
<path d="M146.965 74.1697C143.459 72.1051 142.299 67.6062 144.348 64.1041C146.398 60.6019 150.912 59.438 154.414 61.4876C157.92 63.5523 159.08 68.0511 157.03 71.5533C154.981 75.0554 150.467 76.2194 146.965 74.1697Z" fill="#FF9F9C"/>
<path d="M149.104 75.0071C153.075 75.8789 156.988 73.374 157.864 69.4175C158.739 65.461 156.231 61.5332 152.274 60.6577C148.303 59.7859 144.39 62.2909 143.514 66.2474C142.642 70.2189 145.147 74.1316 149.104 75.0071Z" fill="#FF9F9C"/>
<path d="M106.975 73.4074C106.975 73.4074 110.781 74.4394 115.093 80.1931C119.404 85.9468 126.426 100.596 126.426 100.596C126.426 100.596 122.259 111.714 111.457 124.006C111.457 124.006 101.493 106.024 101.524 98.484C101.554 90.9439 106.975 73.4074 106.975 73.4074Z" fill="#27D29B"/>
<path d="M46.6682 104.635C48.0022 107.088 49.346 109.638 50.594 112.209L51.0897 113.246C55.2865 121.999 56.6925 122.467 58.2138 128.402C61.3656 140.815 60.9867 159.411 60.9893 172.076C60.9893 172.076 97.3695 181.081 128.922 163.392C127.797 158.808 121.881 144.531 118.123 130.516C117.831 129.458 117.572 128.397 117.393 127.588C117.37 127.362 117.296 127.163 117.255 126.972L117.246 126.886L117.689 126.319C118.91 124.729 122.259 119.978 123.074 115.004C124.122 108.897 116.304 98.2903 112.76 86.3076C109.217 74.3249 110.1 70.6702 90.2799 70.447L69.1096 68.7942C69.1096 68.7942 62.1678 71.3301 54.8734 74.5755C43.7592 79.6187 40.7427 93.9358 46.6682 104.635Z" fill="#2DDFA6"/>
<path d="M65.8951 167.122C65.7526 167.113 65.6194 167.048 65.5236 166.942C65.4278 166.836 65.3768 166.697 65.3814 166.555C65.3543 166.285 66.8228 139.611 62.4659 126.025C60.748 120.54 58.5209 115.229 55.8138 110.159C55.7425 110.035 55.7233 109.887 55.7603 109.749C55.7973 109.611 55.8876 109.493 56.0114 109.421C56.0724 109.385 56.1403 109.36 56.2108 109.35C56.2814 109.341 56.3533 109.345 56.4221 109.363C56.491 109.382 56.5554 109.414 56.6115 109.458C56.6676 109.502 56.7143 109.557 56.7488 109.619C59.4905 114.751 61.7425 120.13 63.4752 125.684C67.8947 139.46 66.4791 166.335 66.4405 166.6C66.4357 166.741 66.376 166.875 66.2741 166.972C66.1722 167.07 66.0362 167.124 65.8951 167.122Z" fill="#24C792"/>
<path d="M120.494 122.631C120.367 122.643 120.24 122.61 120.136 122.536C120.02 122.452 119.941 122.325 119.917 122.184C119.892 122.042 119.924 121.896 120.006 121.778C125.125 114.522 122.85 109.315 118.498 101.61C114.042 93.742 109.951 78.6943 109.905 78.5576C109.868 78.4172 109.888 78.2678 109.961 78.1422C110.034 78.0166 110.154 77.9251 110.294 77.8879C110.435 77.8507 110.584 77.8708 110.71 77.9438C110.835 78.0168 110.927 78.1367 110.964 78.2771C110.979 78.4278 115.067 93.3345 119.446 101.091C123.825 108.848 126.377 114.657 120.896 122.416C120.848 122.478 120.787 122.529 120.718 122.566C120.648 122.603 120.572 122.625 120.494 122.631Z" fill="#24C792"/>
<path d="M119.572 157.44C109.014 158.502 99.6901 154.331 93.3188 150.221C88.2869 146.977 83.734 143.043 79.7928 138.536C79.7399 138.483 79.6988 138.419 79.6722 138.348C79.6455 138.278 79.6338 138.203 79.6378 138.128C79.6418 138.053 79.6615 137.979 79.6955 137.912C79.7296 137.845 79.7772 137.786 79.8355 137.738C79.8937 137.69 79.9613 137.655 80.0338 137.635C80.1064 137.615 80.1823 137.611 80.2567 137.622C80.3312 137.633 80.4025 137.659 80.4662 137.699C80.5298 137.739 80.5844 137.792 80.6265 137.855C84.5035 142.267 88.9783 146.117 93.921 149.291C101.371 154.075 112.919 158.957 125.671 155.065C125.74 155.044 125.812 155.036 125.883 155.043C125.954 155.05 126.024 155.072 126.087 155.106C126.15 155.14 126.206 155.186 126.251 155.242C126.296 155.298 126.329 155.362 126.349 155.431C126.372 155.498 126.38 155.569 126.374 155.64C126.369 155.711 126.348 155.779 126.315 155.842C126.281 155.904 126.235 155.959 126.18 156.003C126.125 156.047 126.061 156.079 125.992 156.098C123.901 156.754 121.751 157.203 119.572 157.44Z" fill="#24C792"/>
<path d="M63.8685 97.7424L60.8067 105.128L57.7858 112.596C56.7864 115.089 55.7988 117.591 54.8317 120.08C53.8646 122.569 52.9093 125.068 51.9755 127.564C50.1295 132.555 48.3374 137.541 46.7992 142.457C46.0236 144.905 45.3115 147.336 44.7307 149.667C44.4408 150.783 44.1908 151.972 43.9794 153.004C43.768 154.036 43.6599 155.015 43.614 155.639L42.7966 151.514C43.6276 153.708 44.5875 155.851 45.6712 157.933C46.6854 159.873 47.8717 161.718 49.2158 163.446C49.8902 164.314 50.6161 165.154 51.4089 166.009C52.2016 166.864 53.0373 167.715 53.928 168.571C55.733 170.303 57.7598 172.078 59.8372 173.923C61.5185 175.446 62.556 177.552 62.7384 179.813C62.9207 182.074 62.2342 184.32 60.8186 186.092C59.4031 187.864 57.365 189.031 55.1197 189.353C52.8743 189.675 50.5907 189.129 48.7339 187.826C46.4619 186.206 44.1403 184.526 41.741 182.615C40.5564 181.647 39.3718 180.679 38.171 179.55C36.9702 178.421 35.7683 177.28 34.6546 176.044C32.3744 173.56 30.3246 170.873 28.5306 168.018C26.8273 165.288 25.3067 162.448 23.9788 159.518C23.4492 158.371 23.1716 157.123 23.165 155.86L23.1184 155.397C23.1321 153.565 23.2639 151.736 23.5132 149.921C23.7274 148.269 24.0063 146.719 24.3002 145.211C24.8892 142.205 25.5914 139.352 26.3323 136.559C27.8356 130.972 29.5113 125.585 31.3129 120.261C32.1982 117.607 33.1185 114.977 34.0741 112.373C35.0175 109.756 35.9824 107.137 36.971 104.537C37.9596 101.937 38.9708 99.3456 40.0056 96.7736L41.5725 92.8979C41.8336 92.2519 42.1055 91.6049 42.3785 90.9686L43.2125 88.993C44.362 86.2477 46.555 84.0715 49.3091 82.9431C52.0631 81.8148 55.1526 81.8267 57.8979 82.9762C60.6432 84.1257 62.8194 86.3187 63.9477 89.0728C65.0761 91.8268 65.0642 94.9163 63.9147 97.6616L63.8685 97.7424Z" fill="#FF9F9C"/>
<path d="M54.7419 80.611C54.7419 80.611 46.7616 78.3374 41.4771 90.6432C36.1925 102.949 32.1721 114.312 32.1721 114.312L54.2778 121.263C54.2778 121.263 65.1151 100.397 65.831 97.1396C66.5468 93.8822 65.0121 82.0887 54.7419 80.611Z" fill="#27D29B"/>
<path d="M42.6994 153.89C42.6289 153.898 42.5575 153.891 42.4898 153.87C42.4222 153.849 42.3597 153.813 42.3065 153.767C41.2393 152.885 38.5763 151.054 38.5526 151.035C38.4943 150.995 38.4445 150.943 38.4062 150.883C38.3678 150.823 38.3416 150.757 38.329 150.687C38.3164 150.617 38.3177 150.545 38.3328 150.476C38.3479 150.406 38.3766 150.341 38.4171 150.282C38.4576 150.224 38.5092 150.174 38.569 150.136C38.6288 150.097 38.6955 150.071 38.7654 150.059C38.8353 150.046 38.907 150.047 38.9764 150.062C39.0458 150.078 39.1115 150.106 39.1699 150.147C39.2754 150.223 41.8942 152.047 42.9948 152.936C43.0768 153.005 43.1367 153.096 43.167 153.198C43.1973 153.301 43.1966 153.41 43.165 153.512C43.1334 153.614 43.0724 153.704 42.9895 153.771C42.9066 153.839 42.8057 153.88 42.6994 153.89Z" fill="#E6736E"/>
<path d="M55.1524 120.227C55.0657 120.236 54.9782 120.223 54.8984 120.187C54.8319 120.161 54.7713 120.122 54.7201 120.071C54.6689 120.021 54.6282 119.962 54.6004 119.896C54.5725 119.83 54.558 119.759 54.5577 119.687C54.5574 119.616 54.5714 119.545 54.5987 119.478L63.0983 98.7171C63.1526 98.5833 63.2578 98.4766 63.3908 98.4204C63.5238 98.3642 63.6737 98.3631 63.8075 98.4174C63.9412 98.4717 64.048 98.5769 64.1042 98.7099C64.1604 98.8429 64.1614 98.9928 64.1071 99.1265L55.5968 119.889C55.5605 119.98 55.4999 120.06 55.4216 120.12C55.3433 120.179 55.2503 120.217 55.1524 120.227Z" fill="#24C792"/>
<path d="M61.8452 103.879C61.7131 103.892 61.5807 103.857 61.4724 103.78C61.364 103.703 61.2871 103.59 61.2556 103.461C61.2241 103.332 61.2402 103.196 61.3009 103.078C61.3617 102.96 61.463 102.867 61.5863 102.818L66.0734 101.062C66.2081 101.011 66.3572 101.015 66.489 101.073C66.6207 101.131 66.7246 101.238 66.7786 101.371C66.8287 101.505 66.8242 101.652 66.766 101.782C66.7079 101.912 66.6008 102.014 66.468 102.066L61.9819 103.833L61.8452 103.879Z" fill="#24C792"/>
<path d="M112.218 51.3207C111.632 51.6246 111.162 52.1137 110.882 52.7121L109.149 56.4115C108.834 57.0847 107.92 57.1907 107.459 56.6076L102.007 49.7141C101.546 49.1311 101.86 48.2665 102.588 48.1149L105.984 47.4069C107.01 47.1932 107.911 46.5858 108.493 45.7153L134.809 6.38037L153.456 29.9597L112.218 51.3207Z" fill="#44408D"/>
<path d="M141.775 20.0345C146.924 26.5458 152.418 30.7806 154.046 29.4933C155.673 28.206 152.819 21.8839 147.669 15.3727C142.52 8.86142 137.026 4.6266 135.398 5.91393C133.77 7.20126 136.625 13.5233 141.775 20.0345Z" fill="black"/>
<path d="M149.059 8.74783L150.959 2.88965" stroke="black" stroke-width="1.60037" stroke-linecap="round" stroke-linejoin="round"/>
<path d="M152.767 13.4363L162.146 6.01953" stroke="black" stroke-width="1.60037" stroke-linecap="round" stroke-linejoin="round"/>
<path d="M156.335 19.3266L161.944 18.1576" stroke="black" stroke-width="1.60037" stroke-linecap="round" stroke-linejoin="round"/>
<path d="M89.6769 77.8533C93.534 77.3153 96.1534 76.3157 96.3936 76.2188C96.8005 76.0669 96.9908 75.6123 96.8389 75.2054C96.687 74.7985 96.2324 74.6082 95.8254 74.7601C95.7054 74.8085 83.2843 79.5377 72.3532 73.5786C71.9763 73.3775 71.4873 73.5092 71.2862 73.886C71.0695 74.2651 71.2167 74.7519 71.5935 74.953C78.0467 78.4766 84.8399 78.528 89.6769 77.8533Z" fill="#24C792"/>
<path d="M86.2504 39.4764C86.2504 39.4764 88.7963 28.6222 87.0461 24.9118C82.7418 15.7835 67.0079 13.7915 55.0501 22.8548C43.0924 31.9182 45.973 49.3864 50.5204 55.8732C62.2483 72.573 76.4473 60.5596 76.4473 60.5596C76.4473 60.5596 100.329 47.2044 86.2504 39.4764Z" fill="#44408D"/>
<path d="M88.479 61.3391L88.5749 61.7013L90.0876 68.6033L91.2944 74.002C91.2944 74.002 92.0764 75.1318 85.9127 76.3129C77.6391 77.8595 74.0783 74.9681 74.0783 74.9681L70.4061 62.5262L72.9963 62.3639L88.4956 61.3475L88.479 61.3391Z" fill="#FCA397"/>
<path d="M88.535 61.4638L89.9718 68.1435C85.9007 68.7113 78.2752 68.9077 73.7632 63.5062C73.4084 63.0681 73.144 62.6538 72.9948 62.2957L88.4813 61.3866L88.5146 61.4843L88.535 61.4638Z" fill="black" fill-opacity="0.1"/>
<path d="M82.8452 28.936C82.8452 28.936 95.0253 44.357 94.8788 54.8605C94.7323 65.364 85.4273 66.1662 79.6209 65.667C73.8021 65.1721 70.4731 62.5578 70.4731 62.5578C70.4731 62.5578 65.9508 65.5486 61.4084 61.7985C56.8618 58.036 57.5002 52.1771 60.0158 50.2148C62.5315 48.2524 66.4401 49.4112 66.4401 49.4112L62.4586 45.0416C62.4586 45.0416 66.7942 16.3949 82.8452 28.936Z" fill="#FCA397"/>
<path d="M73.1708 44.4854C73.3615 44.3422 73.482 44.129 73.4763 43.8879C73.4255 42.2088 75.5511 41.3023 75.6332 41.2714C75.9836 41.1308 76.1872 40.7479 76.0781 40.4159C75.9764 40.0936 75.6021 39.9455 75.2404 40.0945C75.1061 40.1493 72.0409 41.4396 72.1217 44.0927C72.134 44.4361 72.4408 44.681 72.8091 44.6343C72.9357 44.616 73.0513 44.5598 73.1522 44.484L73.1708 44.4854Z" fill="black"/>
<path d="M86.5963 36.5289C86.767 36.4845 86.9358 36.3748 87.0492 36.227C87.2728 35.9189 87.1702 35.5248 86.8359 35.3488C86.763 35.302 84.884 34.3838 83.1792 34.8932C82.3354 35.1522 81.6461 35.7129 81.2076 36.5371C81.0363 36.871 81.1784 37.2417 81.5457 37.3697C81.9131 37.4976 82.3444 37.346 82.5157 37.0121C82.7719 36.5378 83.1188 36.2371 83.5533 36.0977C84.6466 35.7475 86.0156 36.4565 86.0298 36.4528C86.2041 36.5389 86.405 36.5524 86.5899 36.5043L86.5963 36.5289Z" fill="black"/>
<path d="M51.4886 35.6282C51.4886 35.6282 46.7963 14.3341 33.6085 20.9385C19.6388 27.9344 41.0438 47.5232 50.0436 43.263C54.0445 41.3723 51.4886 35.6282 51.4886 35.6282Z" fill="#44408D"/>
<path d="M46.9996 43.6924C47.3084 43.5874 47.5042 43.272 47.4375 42.9544C45.4642 34.2808 50.3413 29.2966 50.3911 29.2404C50.648 28.9828 50.6394 28.5931 50.3954 28.362C50.135 28.1234 49.7286 28.1439 49.4801 28.3855C49.2523 28.607 44.0478 33.9252 46.1749 43.2532C46.2456 43.5825 46.5924 43.7917 46.9502 43.7092C46.9749 43.7008 46.9873 43.6966 47.012 43.6882L46.9996 43.6924Z" fill="white"/>
<path d="M71.6686 24.6409C71.6686 24.6409 74.7283 26.586 76.4829 30.7942L78.2375 35.0024L61.5749 46.4827L58.2584 37.9736L71.6561 24.6452L71.6686 24.6409Z" fill="#44408D"/>
<path d="M74.3547 26.4324C74.3547 26.4324 76.4118 27.2869 77.7627 28.923C79.1136 30.5592 81.1237 34.0114 81.1237 34.0114L86.1355 31.6396L82.4096 22.6224L73.8926 20.6489L69.812 22.5789L72.4859 28.3037L74.3547 26.4324Z" fill="#44408D"/>
<path d="M59.8608 54.0786C61.0786 52.6629 64.2618 51.2291 67.2523 56.8202" stroke="black" stroke-width="0.26794"/>
<path d="M62.6133 56.4604L66.665 55.0815" stroke="black" stroke-width="0.26794"/>
<circle cx="86.4417" cy="56.0095" r="2.81765" fill="black"/>
<path d="M160.081 65.4328C162.037 60.9387 164.027 49.6902 162.937 49.0852C161.846 48.465 158.359 57.6656 158.359 57.6656L160.082 65.4479L160.081 65.4328Z" fill="#FF9F9C"/>
<path d="M160.083 65.434C161.213 57.0235 159.594 40.0541 158.317 39.5989C157.04 39.1437 156.621 50.7202 156.621 50.7202C156.621 50.7202 156.105 40.0752 154.161 39.8345C152.216 39.5786 153.721 50.6842 153.721 50.6842C153.721 50.6842 150.738 39.4868 149.313 39.9373C147.889 40.3878 151.106 51.2499 151.106 51.2499C151.106 51.2499 146.52 42.473 145.389 43.2061C144.242 43.9403 148.091 51.1007 148.586 52.7193C149.08 54.3379 144.126 56.5725 145.64 64.6124L160.082 65.4189L160.083 65.434Z" fill="#FF9F9C"/>
<path d="M150.231 71.764C146.502 70.3153 144.655 66.1226 146.105 62.4081C147.554 58.6785 151.746 56.832 155.461 58.2817C159.191 59.7304 161.037 63.9231 159.587 67.6376C158.139 71.3672 153.946 73.2137 150.231 71.764Z" fill="#FF9F9C"/>
</g>
<path d="M84.288 40.0014C84.665 39.1537 85.7682 37.684 87.1649 38.586" stroke="#252F5C" stroke-width="1.6" stroke-linecap="round"/>
<path d="M75.3476 44.1225C75.7246 43.2748 76.8278 41.8051 78.2244 42.7071" stroke="#252F5C" stroke-width="1.6" stroke-linecap="round"/>
<path d="M86.1604 48.7124C85.3748 49.0592 84.5144 49.2024 83.6588 49.1289C83.519 49.1176 83.3895 49.0514 83.2985 48.9447C83.2075 48.838 83.1625 48.6996 83.1734 48.5599C83.1875 48.4212 83.2556 48.2937 83.363 48.205C83.4705 48.1163 83.6085 48.0734 83.7473 48.0858C84.4938 48.1456 85.2425 48.0005 85.9126 47.6662L82.3744 43.8235C82.2816 43.7175 82.2337 43.5796 82.2409 43.4389C82.2481 43.2982 82.3098 43.1659 82.4129 43.0699C82.5175 42.9782 82.6541 42.9313 82.793 42.9394C82.9319 42.9475 83.062 43.01 83.1552 43.1133L87.1432 47.4732C87.1948 47.5232 87.236 47.583 87.2644 47.6491C87.2927 47.7151 87.3076 47.7862 87.3082 47.8581C87.302 47.9315 87.2813 48.0029 87.2471 48.0681C87.213 48.1334 87.1662 48.1912 87.1095 48.2382C86.8092 48.4266 86.4914 48.5854 86.1604 48.7124Z" fill="#211C19"/>
</svg>
