<svg width="14" height="15" viewBox="0 0 14 15" fill="none" xmlns="http://www.w3.org/2000/svg">
<g clip-path="url(#clip0_22282_17433)">
<path d="M13.7899 7.29447L7.75241 1.2601L7.34772 0.85541C7.25551 0.763811 7.13082 0.712402 7.00085 0.712402C6.87087 0.712402 6.74618 0.763811 6.65397 0.85541L0.211783 7.29447C0.117301 7.38859 0.0426296 7.50068 -0.00782254 7.62412C-0.0582747 7.74757 -0.0834854 7.87987 -0.0819665 8.01322C-0.0757165 8.56322 0.382096 9.00229 0.932096 9.00229H1.59616V14.0913H12.4055V9.00229H13.0837C13.3508 9.00229 13.6024 8.8976 13.7915 8.70854C13.8846 8.61574 13.9583 8.5054 14.0085 8.3839C14.0586 8.26241 14.0842 8.13217 14.0837 8.00072C14.0837 7.7351 13.979 7.48354 13.7899 7.29447ZM7.87585 12.9663H6.12585V9.77885H7.87585V12.9663ZM11.2805 7.87729V12.9663H8.87585V9.40385C8.87585 9.05854 8.59616 8.77885 8.25085 8.77885H5.75085C5.40553 8.77885 5.12585 9.05854 5.12585 9.40385V12.9663H2.72116V7.87729H1.22116L7.00241 2.10072L7.36335 2.46166L12.7821 7.87729H11.2805Z" fill="black"/>
</g>
<defs>
<clipPath id="clip0_22282_17433">
<rect width="14" height="14" fill="white" transform="translate(0 0.404785)"/>
</clipPath>
</defs>
</svg>
