<svg width="12" height="18" viewBox="0 0 12 18" fill="none" xmlns="http://www.w3.org/2000/svg">
<path d="M10.7518 7.65262L3.84168 0.760311C3.68653 0.595357 3.49972 0.463173 3.29234 0.371606C3.08496 0.280039 2.86123 0.230956 2.63446 0.227275C2.40768 0.223593 2.18247 0.265386 1.97221 0.350173C1.76195 0.434959 1.57092 0.561011 1.41047 0.720841C1.25001 0.88067 1.12341 1.07102 1.03817 1.28058C0.952925 1.49015 0.910789 1.71466 0.914261 1.94077C0.917732 2.16689 0.96674 2.39001 1.05837 2.59687C1.15001 2.80374 1.2824 2.99013 1.44768 3.14499C5.51935 7.24548 7.11652 8.82053 7.14218 8.84496C7.16785 8.86938 5.46685 10.6236 1.44768 14.6298C1.13006 14.9464 0.951565 15.3758 0.951456 15.8235C0.951346 16.2713 1.12963 16.7007 1.4471 17.0174C1.76456 17.3341 2.1952 17.5121 2.64427 17.5122C3.09334 17.5123 3.52406 17.3345 3.84168 17.018L10.7542 10.1257C10.9119 9.96939 11.037 9.78341 11.1221 9.57853C11.2072 9.37365 11.2507 9.15396 11.25 8.9322C11.2511 8.91826 11.2511 8.90426 11.25 8.89032C11.251 8.87638 11.251 8.86239 11.25 8.84845C11.2498 8.40084 11.0714 7.97162 10.7542 7.65494L10.7518 7.65262Z" fill="#272727"/>
</svg>
