<svg width="198" height="213" viewBox="0 0 198 213" fill="none" xmlns="http://www.w3.org/2000/svg">
    <mask id="mask0_17467_20966" style="mask-type:alpha" maskUnits="userSpaceOnUse" x="0" y="0" width="198" height="213">
    <rect width="198" height="213" rx="24" fill="#E7F1EE"/>
    </mask>
    <g mask="url(#mask0_17467_20966)">
    <path d="M61.849 106.86C58.7832 107.486 55.9572 109.144 54.1271 111.686C52.5238 113.915 51.3512 117.124 52.0502 121.545C53.7179 132.161 58.2499 133.721 53.8078 139.447C49.3657 145.174 45.3393 143.957 44.906 154.523C44.4727 165.089 54.281 175.702 65.0037 169.243C75.7221 162.772 101.178 145.554 101.178 145.554L88.3541 103.585L73.0194 104.575L61.8781 106.864L61.849 106.86Z" fill="#44408D"/>
    <path d="M134.619 163.793L159.081 127.822L171.543 135.152L151.831 174.305L134.619 163.793Z" fill="#FF9F9C"/>
    <path d="M138.028 177.89C133.225 175.069 131.618 168.89 134.439 164.087C137.261 159.285 143.44 157.677 148.242 160.499C153.045 163.32 154.652 169.499 151.831 174.302C149.009 179.104 142.83 180.712 138.028 177.89Z" fill="#FF9F9C"/>
    <path d="M161.965 137.17C158.459 135.105 157.299 130.606 159.348 127.104C161.398 123.602 165.912 122.438 169.414 124.488C172.92 126.552 174.08 131.051 172.03 134.553C169.981 138.055 165.467 139.219 161.965 137.17Z" fill="#FF9F9C"/>
    <path d="M164.104 138.007C168.075 138.879 171.988 136.374 172.864 132.417C173.739 128.461 171.231 124.533 167.274 123.658C163.303 122.786 159.39 125.291 158.514 129.247C157.642 133.219 160.147 137.132 164.104 138.007Z" fill="#FF9F9C"/>
    <path d="M121.975 136.407C121.975 136.407 125.781 137.439 130.093 143.193C134.404 148.947 141.426 163.596 141.426 163.596C141.426 163.596 137.259 174.714 126.457 187.006C126.457 187.006 116.493 169.024 116.524 161.484C116.554 153.944 121.975 136.407 121.975 136.407Z" fill="#27D29B"/>
    <path d="M61.6682 167.635C63.0022 170.088 64.346 172.638 65.594 175.209L66.0897 176.246C70.2865 184.999 71.6925 185.467 73.2138 191.402C76.3656 203.815 75.9867 222.411 75.9893 235.076C75.9893 235.076 112.369 244.081 143.922 226.392C142.797 221.808 136.881 207.531 133.123 193.516C132.831 192.458 132.572 191.397 132.393 190.588C132.37 190.362 132.296 190.163 132.255 189.972L132.246 189.886L132.689 189.319C133.91 187.729 137.259 182.978 138.074 178.004C139.122 171.897 131.304 161.29 127.76 149.308C124.217 137.325 125.1 133.67 105.28 133.447L84.1096 131.794C84.1096 131.794 77.1678 134.33 69.8734 137.576C58.7592 142.619 55.7427 156.936 61.6682 167.635Z" fill="#2DDFA6"/>
    <path d="M80.8951 230.122C80.7526 230.113 80.6194 230.048 80.5236 229.942C80.4278 229.836 80.3768 229.697 80.3814 229.555C80.3543 229.285 81.8228 202.611 77.4659 189.025C75.748 183.54 73.5209 178.229 70.8138 173.159C70.7425 173.035 70.7233 172.887 70.7603 172.749C70.7973 172.611 70.8876 172.493 71.0114 172.421C71.0724 172.385 71.1403 172.36 71.2108 172.35C71.2814 172.341 71.3533 172.345 71.4221 172.363C71.491 172.382 71.5554 172.414 71.6115 172.458C71.6676 172.502 71.7143 172.557 71.7488 172.619C74.4905 177.751 76.7425 183.13 78.4752 188.684C82.8947 202.46 81.4791 229.335 81.4405 229.6C81.4357 229.741 81.376 229.875 81.2741 229.972C81.1722 230.07 81.0362 230.124 80.8951 230.122Z" fill="#24C792"/>
    <path d="M135.494 185.631C135.367 185.643 135.24 185.61 135.136 185.536C135.02 185.452 134.941 185.325 134.917 185.184C134.892 185.042 134.924 184.896 135.006 184.778C140.125 177.522 137.85 172.315 133.498 164.61C129.042 156.742 124.951 141.694 124.905 141.558C124.868 141.417 124.888 141.268 124.961 141.142C125.034 141.017 125.154 140.925 125.294 140.888C125.435 140.851 125.584 140.871 125.71 140.944C125.835 141.017 125.927 141.137 125.964 141.277C125.979 141.428 130.067 156.335 134.446 164.091C138.825 171.848 141.377 177.657 135.896 185.416C135.848 185.478 135.787 185.529 135.718 185.566C135.648 185.603 135.572 185.625 135.494 185.631Z" fill="#24C792"/>
    <path d="M134.572 220.44C124.014 221.502 114.69 217.331 108.319 213.221C103.287 209.977 98.734 206.043 94.7928 201.536C94.7399 201.483 94.6988 201.419 94.6722 201.348C94.6455 201.278 94.6338 201.203 94.6378 201.128C94.6418 201.053 94.6615 200.979 94.6955 200.912C94.7296 200.845 94.7772 200.786 94.8355 200.738C94.8937 200.69 94.9613 200.655 95.0338 200.635C95.1064 200.615 95.1823 200.611 95.2567 200.622C95.3312 200.633 95.4025 200.659 95.4662 200.699C95.5298 200.739 95.5844 200.792 95.6265 200.855C99.5035 205.267 103.978 209.117 108.921 212.291C116.371 217.075 127.919 221.957 140.671 218.065C140.74 218.044 140.812 218.036 140.883 218.043C140.954 218.05 141.024 218.072 141.087 218.106C141.15 218.14 141.206 218.186 141.251 218.242C141.296 218.298 141.329 218.362 141.349 218.431C141.372 218.498 141.38 218.569 141.374 218.64C141.369 218.711 141.348 218.779 141.315 218.842C141.281 218.904 141.235 218.959 141.18 219.003C141.125 219.047 141.061 219.079 140.992 219.098C138.901 219.754 136.751 220.203 134.572 220.44Z" fill="#24C792"/>
    <path d="M78.8685 160.742L75.8067 168.128L72.7858 175.596C71.7864 178.089 70.7988 180.591 69.8317 183.08C68.8646 185.569 67.9093 188.068 66.9755 190.564C65.1295 195.555 63.3374 200.541 61.7992 205.457C61.0236 207.905 60.3115 210.336 59.7307 212.667C59.4408 213.783 59.1908 214.972 58.9794 216.004C58.768 217.036 58.6599 218.015 58.614 218.639L57.7966 214.514C58.6276 216.708 59.5875 218.851 60.6712 220.933C61.6854 222.873 62.8717 224.718 64.2158 226.446C64.8902 227.314 65.6161 228.154 66.4089 229.009C67.2016 229.864 68.0373 230.715 68.928 231.571C70.733 233.303 72.7598 235.078 74.8372 236.923C76.5185 238.446 77.556 240.552 77.7384 242.813C77.9207 245.074 77.2342 247.32 75.8186 249.092C74.4031 250.864 72.365 252.031 70.1197 252.353C67.8743 252.675 65.5907 252.129 63.7339 250.826C61.4619 249.206 59.1403 247.526 56.741 245.615C55.5564 244.647 54.3718 243.679 53.171 242.55C51.9702 241.421 50.7683 240.28 49.6546 239.044C47.3744 236.56 45.3246 233.873 43.5306 231.018C41.8273 228.288 40.3067 225.448 38.9788 222.518C38.4492 221.371 38.1716 220.123 38.165 218.86L38.1184 218.397C38.1321 216.565 38.2639 214.736 38.5132 212.921C38.7274 211.269 39.0063 209.719 39.3002 208.211C39.8892 205.205 40.5914 202.352 41.3323 199.559C42.8356 193.972 44.5113 188.585 46.3129 183.261C47.1982 180.607 48.1185 177.977 49.0741 175.373C50.0175 172.756 50.9824 170.137 51.971 167.537C52.9596 164.937 53.9708 162.346 55.0056 159.774L56.5725 155.898C56.8336 155.252 57.1055 154.605 57.3785 153.969L58.2125 151.993C59.362 149.248 61.555 147.072 64.3091 145.943C67.0631 144.815 70.1526 144.827 72.8979 145.976C75.6432 147.126 77.8194 149.319 78.9477 152.073C80.0761 154.827 80.0642 157.916 78.9147 160.662L78.8685 160.742Z" fill="#FF9F9C"/>
    <path d="M69.7419 143.611C69.7419 143.611 61.7616 141.337 56.4771 153.643C51.1925 165.949 47.1721 177.312 47.1721 177.312L69.2778 184.263C69.2778 184.263 80.1151 163.397 80.831 160.14C81.5468 156.882 80.0121 145.089 69.7419 143.611Z" fill="#27D29B"/>
    <path d="M57.6994 216.89C57.6289 216.898 57.5575 216.891 57.4898 216.87C57.4222 216.849 57.3597 216.813 57.3065 216.767C56.2393 215.885 53.5763 214.054 53.5526 214.035C53.4943 213.995 53.4445 213.943 53.4062 213.883C53.3678 213.823 53.3416 213.757 53.329 213.687C53.3164 213.617 53.3177 213.545 53.3328 213.476C53.3479 213.406 53.3766 213.341 53.4171 213.282C53.4576 213.224 53.5092 213.174 53.569 213.136C53.6288 213.097 53.6955 213.071 53.7654 213.059C53.8353 213.046 53.907 213.047 53.9764 213.062C54.0458 213.078 54.1115 213.106 54.1699 213.147C54.2754 213.223 56.8942 215.047 57.9948 215.936C58.0768 216.005 58.1367 216.096 58.167 216.198C58.1973 216.301 58.1966 216.41 58.165 216.512C58.1334 216.614 58.0724 216.704 57.9895 216.771C57.9066 216.839 57.8057 216.88 57.6994 216.89Z" fill="#E6736E"/>
    <path d="M70.1524 183.227C70.0657 183.236 69.9782 183.223 69.8984 183.187C69.8319 183.161 69.7713 183.122 69.7201 183.071C69.6689 183.021 69.6282 182.962 69.6004 182.896C69.5725 182.83 69.558 182.759 69.5577 182.687C69.5574 182.616 69.5714 182.545 69.5987 182.478L78.0983 161.717C78.1526 161.583 78.2578 161.477 78.3908 161.42C78.5238 161.364 78.6737 161.363 78.8075 161.417C78.9412 161.472 79.048 161.577 79.1042 161.71C79.1604 161.843 79.1614 161.993 79.1071 162.127L70.5968 182.889C70.5605 182.98 70.4999 183.06 70.4216 183.12C70.3433 183.179 70.2503 183.217 70.1524 183.227Z" fill="#24C792"/>
    <path d="M76.8452 166.879C76.7131 166.892 76.5807 166.857 76.4724 166.78C76.364 166.703 76.2871 166.59 76.2556 166.461C76.2241 166.332 76.2402 166.196 76.3009 166.078C76.3617 165.96 76.463 165.867 76.5863 165.818L81.0734 164.062C81.2081 164.011 81.3572 164.015 81.489 164.073C81.6207 164.131 81.7246 164.238 81.7786 164.371C81.8287 164.505 81.8242 164.652 81.766 164.782C81.7079 164.912 81.6008 165.014 81.468 165.066L76.9819 166.833L76.8452 166.879Z" fill="#24C792"/>
    <path d="M127.218 114.321C126.632 114.625 126.162 115.114 125.882 115.712L124.149 119.411C123.834 120.085 122.92 120.191 122.459 119.608L117.007 112.714C116.546 112.131 116.86 111.267 117.588 111.115L120.984 110.407C122.01 110.193 122.911 109.586 123.493 108.715L149.809 69.3804L168.456 92.9597L127.218 114.321Z" fill="#44408D"/>
    <path d="M156.775 83.0345C161.924 89.5458 167.418 93.7806 169.046 92.4933C170.673 91.206 167.819 84.8839 162.669 78.3727C157.52 71.8614 152.026 67.6266 150.398 68.9139C148.77 70.2013 151.625 76.5233 156.775 83.0345Z" fill="black"/>
    <path d="M164.059 71.7478L165.959 65.8896" stroke="black" stroke-width="1.60037" stroke-linecap="round" stroke-linejoin="round"/>
    <path d="M167.767 76.4363L177.146 69.0195" stroke="black" stroke-width="1.60037" stroke-linecap="round" stroke-linejoin="round"/>
    <path d="M171.335 82.3266L176.944 81.1576" stroke="black" stroke-width="1.60037" stroke-linecap="round" stroke-linejoin="round"/>
    <path d="M104.677 140.853C108.534 140.315 111.153 139.316 111.394 139.219C111.8 139.067 111.991 138.612 111.839 138.205C111.687 137.798 111.232 137.608 110.825 137.76C110.705 137.809 98.2843 142.538 87.3532 136.579C86.9763 136.378 86.4873 136.509 86.2862 136.886C86.0695 137.265 86.2167 137.752 86.5935 137.953C93.0467 141.477 99.8399 141.528 104.677 140.853Z" fill="#24C792"/>
    <path d="M101.25 102.476C101.25 102.476 103.796 91.6222 102.046 87.9118C97.7418 78.7835 82.0079 76.7915 70.0501 85.8548C58.0924 94.9182 60.973 112.386 65.5204 118.873C77.2483 135.573 91.4473 123.56 91.4473 123.56C91.4473 123.56 115.329 110.204 101.25 102.476Z" fill="#44408D"/>
    <path d="M103.479 124.339L103.575 124.701L105.088 131.603L106.294 137.002C106.294 137.002 107.076 138.132 100.913 139.313C92.6391 140.859 89.0783 137.968 89.0783 137.968L85.4061 125.526L87.9963 125.364L103.496 124.348L103.479 124.339Z" fill="#FCA397"/>
    <path d="M103.535 124.464L104.972 131.144C100.901 131.711 93.2752 131.908 88.7632 126.506C88.4084 126.068 88.144 125.654 87.9948 125.296L103.481 124.387L103.515 124.484L103.535 124.464Z" fill="black" fill-opacity="0.1"/>
    <path d="M97.8452 91.936C97.8452 91.936 110.025 107.357 109.879 117.861C109.732 128.364 100.427 129.166 94.6209 128.667C88.8021 128.172 85.4731 125.558 85.4731 125.558C85.4731 125.558 80.9508 128.549 76.4084 124.799C71.8618 121.036 72.5002 115.177 75.0158 113.215C77.5315 111.252 81.4401 112.411 81.4401 112.411L77.4586 108.042C77.4586 108.042 81.7942 79.3949 97.8452 91.936Z" fill="#FCA397"/>
    <path d="M88.1708 107.485C88.3615 107.342 88.482 107.129 88.4763 106.888C88.4255 105.209 90.5511 104.302 90.6332 104.271C90.9836 104.131 91.1872 103.748 91.0781 103.416C90.9764 103.094 90.6021 102.945 90.2404 103.094C90.1061 103.149 87.0409 104.44 87.1217 107.093C87.134 107.436 87.4408 107.681 87.8091 107.634C87.9357 107.616 88.0513 107.56 88.1522 107.484L88.1708 107.485Z" fill="black"/>
    <path d="M101.596 99.5289C101.767 99.4845 101.936 99.3748 102.049 99.227C102.273 98.9189 102.17 98.5248 101.836 98.3488C101.763 98.302 99.884 97.3838 98.1792 97.8932C97.3354 98.1522 96.6461 98.7129 96.2076 99.5371C96.0363 99.871 96.1784 100.242 96.5457 100.37C96.9131 100.498 97.3444 100.346 97.5157 100.012C97.7719 99.5378 98.1188 99.2371 98.5533 99.0977C99.6466 98.7475 101.016 99.4565 101.03 99.4528C101.204 99.5389 101.405 99.5524 101.59 99.5043L101.596 99.5289Z" fill="black"/>
    <path d="M66.4886 98.6282C66.4886 98.6282 61.7963 77.3341 48.6085 83.9385C34.6388 90.9344 56.0438 110.523 65.0436 106.263C69.0445 104.372 66.4886 98.6282 66.4886 98.6282Z" fill="#44408D"/>
    <path d="M61.9996 106.692C62.3084 106.587 62.5042 106.272 62.4375 105.954C60.4642 97.2808 65.3413 92.2966 65.3911 92.2404C65.648 91.9828 65.6394 91.5931 65.3954 91.362C65.135 91.1234 64.7286 91.1439 64.4801 91.3855C64.2523 91.607 59.0478 96.9252 61.1749 106.253C61.2456 106.583 61.5924 106.792 61.9502 106.709C61.9749 106.701 61.9873 106.697 62.012 106.688L61.9996 106.692Z" fill="white"/>
    <path d="M86.6686 87.6409C86.6686 87.6409 89.7283 89.586 91.4829 93.7942L93.2375 98.0024L76.5749 109.483L73.2584 100.974L86.6561 87.6452L86.6686 87.6409Z" fill="#44408D"/>
    <path d="M89.3547 89.4324C89.3547 89.4324 91.4118 90.2869 92.7627 91.923C94.1136 93.5592 96.1237 97.0114 96.1237 97.0114L101.136 94.6396L97.4096 85.6224L88.8926 83.6489L84.812 85.5789L87.4859 91.3037L89.3547 89.4324Z" fill="#44408D"/>
    <path d="M74.8608 117.079C76.0786 115.663 79.2618 114.229 82.2523 119.82" stroke="black" stroke-width="0.26794"/>
    <path d="M77.6133 119.46L81.665 118.082" stroke="black" stroke-width="0.26794"/>
    <circle cx="101.442" cy="119.01" r="2.81765" fill="black"/>
    <path d="M175.081 128.433C177.037 123.939 179.027 112.69 177.937 112.085C176.846 111.465 173.359 120.666 173.359 120.666L175.082 128.448L175.081 128.433Z" fill="#FF9F9C"/>
    <path d="M175.083 128.434C176.213 120.023 174.594 103.054 173.317 102.599C172.04 102.144 171.621 113.72 171.621 113.72C171.621 113.72 171.105 103.075 169.161 102.834C167.216 102.579 168.721 113.684 168.721 113.684C168.721 113.684 165.738 102.487 164.313 102.937C162.889 103.388 166.106 114.25 166.106 114.25C166.106 114.25 161.52 105.473 160.389 106.206C159.242 106.94 163.091 114.101 163.586 115.719C164.08 117.338 159.126 119.572 160.64 127.612L175.082 128.419L175.083 128.434Z" fill="#FF9F9C"/>
    <path d="M165.231 134.764C161.502 133.315 159.655 129.123 161.105 125.408C162.554 121.679 166.746 119.832 170.461 121.282C174.191 122.73 176.037 126.923 174.587 130.638C173.139 134.367 168.946 136.214 165.231 134.764Z" fill="#FF9F9C"/>
    </g>
    </svg>
    